<?xml version="1.0" encoding="utf-8"?>
<!-- Generator: Adobe Illustrator 16.0.0, SVG Export Plug-In . SVG Version: 6.00 Build 0)  -->
<!DOCTYPE svg PUBLIC "-//W3C//DTD SVG 1.1//EN" "http://www.w3.org/Graphics/SVG/1.1/DTD/svg11.dtd">
<svg version="1.1" id="Layer_1" xmlns="http://www.w3.org/2000/svg" xmlns:xlink="http://www.w3.org/1999/xlink" x="0px" y="0px"
	 width="149px" height="15px" viewBox="0 0 149 15" enable-background="new 0 0 149 15" xml:space="preserve">
<g>
	<g>
		
			<line fill="none" stroke="#E06E5C" stroke-width="2" stroke-linejoin="round" stroke-miterlimit="10" x1="75" y1="2" x2="87" y2="2"/>
		
			<line fill="none" stroke="#E06E5C" stroke-width="2" stroke-linejoin="round" stroke-miterlimit="10" x1="81" y1="2" x2="81" y2="14"/>
	</g>
	<g>
		<path fill="none" stroke="#E06E5C" stroke-width="2" stroke-linejoin="round" stroke-miterlimit="10" d="M35.466,4.377
			c0-1.584-2.04-2.546-5.009-2.546c-2.969,0-5.141,1.246-5.141,2.88c0,4.631,11.16,0.672,11.16,5.396c0,2.125-2.495,3.1-5.927,3.1
			c-3.432,0-5.659-0.779-5.659-2.841"/>
	</g>
	<path fill="none" stroke="#E06E5C" stroke-width="2" stroke-linejoin="round" stroke-miterlimit="10" d="M71,8.898
		c0,2.533-2.899,4.587-6,4.587l0,0c-3.1,0-6-2.054-6-4.587V5.601c0-2.534,2.9-4.587,6-4.587l0,0c3.101,0,6,2.053,6,4.587V8.898z"/>
	<g>
		
			<line fill="none" stroke="#E06E5C" stroke-width="2" stroke-linejoin="round" stroke-miterlimit="10" x1="53.379" y1="6.957" x2="42.004" y2="8.707"/>
		
			<line fill="none" stroke="#E06E5C" stroke-width="2" stroke-linejoin="round" stroke-miterlimit="10" x1="42" y1="1" x2="42" y2="14"/>
		
			<line fill="none" stroke="#E06E5C" stroke-width="2" stroke-linejoin="round" stroke-miterlimit="10" x1="53" y1="1" x2="53" y2="14"/>
	</g>
	<g>
		
			<line fill="none" stroke="#E06E5C" stroke-width="2" stroke-linejoin="round" stroke-miterlimit="10" x1="101" y1="1" x2="101" y2="14"/>
		
			<line fill="none" stroke="#E06E5C" stroke-width="2" stroke-linejoin="round" stroke-miterlimit="10" x1="112" y1="1" x2="112" y2="14"/>
		
			<line fill="none" stroke="#E06E5C" stroke-width="2" stroke-linejoin="round" stroke-miterlimit="10" x1="112.004" y1="7.019" x2="102.004" y2="9.019"/>
	</g>
	<polyline fill="none" stroke="#E06E5C" stroke-width="2" stroke-linejoin="round" stroke-miterlimit="10" points="134,14 134,1.86 
		141,13.207 148,1.597 148,14 	"/>
	<g>
		
			<line fill="none" stroke="#E06E5C" stroke-width="2" stroke-linejoin="round" stroke-miterlimit="10" x1="5" y1="2" x2="5" y2="12"/>
		
			<line fill="none" stroke="#E06E5C" stroke-width="2" stroke-linejoin="round" stroke-miterlimit="10" x1="0" y1="2" x2="10" y2="2"/>
		
			<line fill="none" stroke="#E06E5C" stroke-width="2" stroke-linejoin="round" stroke-miterlimit="10" x1="0" y1="13" x2="10" y2="13"/>
	</g>
	<g>
		<polyline fill="none" stroke="#E06E5C" stroke-width="2" stroke-linejoin="round" stroke-miterlimit="10" points="118,2 
			123.004,2 128,2 		"/>
		<polyline fill="none" stroke="#E06E5C" stroke-width="2" stroke-linejoin="round" stroke-miterlimit="10" points="118,13 
			123.004,13 128,13 		"/>
		
			<line fill="none" stroke="#E06E5C" stroke-width="2" stroke-linejoin="round" stroke-miterlimit="10" x1="123" y1="2" x2="123" y2="13"/>
	</g>
</g>
</svg>
